<svg xmlns="http://www.w3.org/2000/svg" version="1.1" xmlns:xlink="http://www.w3.org/1999/xlink" xmlns:svgjs="http://svgjs.dev/svgjs" width="90" height="90" viewBox="0 0 1500 1500"><rect width="1500" height="1500" fill="#8abcd7"></rect><g transform="matrix(0.6666666666666666,0,0,0.6666666666666666,249.39393939393938,538.2502730383931)"><svg viewBox="0 0 396 168" data-background-color="#8abcd7" preserveAspectRatio="xMidYMid meet" height="636" width="1500" xmlns="http://www.w3.org/2000/svg" xmlns:xlink="http://www.w3.org/1999/xlink"><g id="tight-bounds" transform="matrix(1,0,0,1,0.2400000000000091,-0.09916478879728174)"><svg viewBox="0 0 395.52 168.19832957759456" height="168.19832957759456" width="395.52"><g><svg viewBox="0 0 395.52 168.19832957759456" height="168.19832957759456" width="395.52"><g transform="matrix(1,0,0,1,0,103.95331546127612)"><svg viewBox="0 0 395.52 64.24501411631846" height="64.24501411631846" width="395.52"><g id="textblocktransform"><svg viewBox="0 0 395.52 64.24501411631846" height="64.24501411631846" width="395.52" id="textblock"><g><svg viewBox="0 0 395.52 64.24501411631846" height="64.24501411631846" width="395.52"><g transform="matrix(1,0,0,1,0,0)"><svg width="395.52" viewBox="1.35 -42.3 265.63 43.15" height="64.24501411631846" data-palette-color="#ffffff"><path d="M30.3 0L26.2-11.05 10.4-11.05 6.35 0 1.35 0 15.6-38.35 21-38.35 35.3 0 30.3 0ZM12.05-15.4L24.55-15.4 18.3-32.3 12.05-15.4ZM59.1-27.65L64-27.65 53.55 0.45 48.15 0.45 37.6-27.65 42.5-27.65 50.85-4.75 59.1-27.65ZM69.5-32.85L69.5-40.4 74.2-40.4 74.2-32.85 69.5-32.85ZM69.5 0L69.5-27.65 74.2-27.65 74.2 0 69.5 0ZM114.89-19.25Q121.69-17.05 121.69-10.25L121.69-10.25Q121.69-5.05 118.57-2.53 115.44 0 108.14 0L108.14 0 95.04 0 95.04-37.9 108.14-37.9Q114.79-37.9 117.49-35.4 120.19-32.9 120.19-27.75L120.19-27.75Q120.19-24.7 118.92-22.58 117.64-20.45 114.89-19.25L114.89-19.25ZM99.89-33.8L99.89-21.05 108.14-21.05Q115.19-21.05 115.24-27.4L115.24-27.4Q115.24-30.9 113.69-32.35 112.14-33.8 108.14-33.8L108.14-33.8 99.89-33.8ZM116.74-10.55Q116.74-13.9 114.57-15.43 112.39-16.95 108.14-16.95L108.14-16.95 99.89-16.95 99.89-4.1 108.14-4.1Q112.84-4.1 114.79-5.65 116.74-7.2 116.74-10.55L116.74-10.55ZM136.69 0.65Q132.94 0.65 131.29-0.85 129.64-2.35 129.64-5.9L129.64-5.9 129.64-42.3 134.34-42.3 134.34-7.15Q134.34-5.15 134.96-4.42 135.59-3.7 137.34-3.7L137.34-3.7Q138.74-3.7 139.84-4L139.84-4 139.84 0.3Q137.84 0.65 136.69 0.65L136.69 0.65ZM145.59-32.85L145.59-40.4 150.28-40.4 150.28-32.85 145.59-32.85ZM145.59 0L145.59-27.65 150.28-27.65 150.28 0 145.59 0ZM172.43-28.25Q177.53-28.25 180.01-25.55 182.48-22.85 182.48-16.65L182.48-16.65 182.48 0 177.78 0 177.78-16.65Q177.78-20.55 176.46-22.2 175.13-23.85 171.78-23.85L171.78-23.85Q167.88-23.85 163.98-20.45L163.98-20.45 163.98 0 159.28 0 159.28-27.65 163.98-27.65 163.98-24.7Q168.08-28.25 172.43-28.25L172.43-28.25ZM209.83-42.3L214.53-42.3 214.53 0 209.83 0 209.83-2.5Q205.88 0.85 201.83 0.85L201.83 0.85Q196.23 0.85 192.88-2.9 189.53-6.65 189.53-13.8L189.53-13.8Q189.53-20.95 192.88-24.7 196.23-28.45 201.83-28.45L201.83-28.45Q205.83-28.45 209.83-25.05L209.83-25.05 209.83-42.3ZM202.43-3.5Q206.03-3.5 209.83-6.6L209.83-6.6 209.83-20.95Q206.13-24.05 202.43-24.05L202.43-24.05Q198.48-24.05 196.46-21.45 194.43-18.85 194.43-13.8L194.43-13.8Q194.43-8.75 196.46-6.13 198.48-3.5 202.43-3.5L202.43-3.5ZM226.73-13.45Q226.83-8.85 229.03-6.1 231.23-3.35 236.03-3.35L236.03-3.35Q239.68-3.35 244.03-5.4L244.03-5.4 245.48-1.5Q240.93 0.85 235.63 0.85L235.63 0.85Q231.23 0.85 228.13-1 225.03-2.85 223.43-6.15 221.83-9.45 221.83-13.85L221.83-13.85Q221.83-18.5 223.5-21.78 225.18-25.05 228.03-26.75 230.88-28.45 234.43-28.45L234.43-28.45Q239.88-28.45 242.98-25.05 246.08-21.65 246.08-15.3L246.08-15.3 246.08-13.45 226.73-13.45ZM234.43-24.25Q228.23-24.25 227.03-17.4L227.03-17.4 241.13-17.4Q240.88-20.9 239.23-22.58 237.58-24.25 234.43-24.25L234.43-24.25ZM265.83-28.25L266.98-28.25 266.98-23.85 265.83-23.85Q261.53-23.85 257.48-20.4L257.48-20.4 257.48 0 252.78 0 252.78-27.65 257.48-27.65 257.48-24.55Q261.58-28.25 265.83-28.25L265.83-28.25Z" opacity="1" transform="matrix(1,0,0,1,0,0)" fill="#ffffff" class="wordmark-text-0" data-fill-palette-color="primary" id="text-0"></path></svg></g></svg></g></svg></g></svg></g><g transform="matrix(1,0,0,1,150.2992846627768,0)"><svg viewBox="0 0 94.92143067444633 88.78660950875212" height="88.78660950875212" width="94.92143067444633"><g><svg xmlns="http://www.w3.org/2000/svg" xmlns:xlink="http://www.w3.org/1999/xlink" version="1.1" x="8" y="0" viewBox="10 5 80 90" enable-background="new 0 0 100 100" xml:space="preserve" height="88.78660950875212" width="78.92143067444633" class="icon-icon-0" data-fill-palette-color="accent" id="icon-0"><g fill="#ffffff" data-fill-palette-color="accent"><path d="M33.987 37.14h8.301c2.872 0 5.208-2.351 5.208-5.24v-2.41c0-0.011-0.003-0.022-0.003-0.034 0.011-0.021 0.029-0.033 0.04-0.053 0.472-0.971 1.674-1.127 2.709-1.118 0.784-0.028 1.741 0.13 2.306 0.759-0.013 0.15-0.044 0.293-0.044 0.446v2.41c0 2.889 2.339 5.24 5.214 5.24h8.301c2.875 0 5.216-2.351 5.216-5.24v-2.41c0-2.889-2.341-5.24-5.216-5.24h-8.301c-1.131 0-2.168 0.372-3.024 0.988-1.015-0.73-2.451-1.302-4.452-1.224-2.2-0.045-3.713 0.598-4.745 1.38-0.886-0.706-1.992-1.145-3.209-1.145h-8.301c-2.875 0-5.214 2.351-5.214 5.24v2.41C28.773 34.789 31.112 37.14 33.987 37.14zM57.719 28.523h8.301c0.521 0 0.963 0.443 0.963 0.966v2.41c0 0.523-0.441 0.966-0.963 0.966h-8.301c-0.521 0-0.963-0.443-0.963-0.966v-2.41C56.756 28.967 57.197 28.523 57.719 28.523zM33.023 29.49c0-0.523 0.441-0.966 0.964-0.966h8.301c0.519 0 0.958 0.443 0.958 0.966v2.41c0 0.532-0.43 0.966-0.958 0.966h-8.301c-0.523 0-0.964-0.443-0.964-0.966V29.49z" fill="#ffffff" data-fill-palette-color="accent"></path><path d="M64.647 41.949v1.411c0 2.14-1.018 4.201-2.716 5.513-0.932 0.718-1.108 2.061-0.392 2.998 0.42 0.547 1.05 0.835 1.686 0.835 0.454 0 0.907-0.144 1.295-0.442 2.741-2.115 4.374-5.444 4.374-8.903v-1.411c0-1.18-0.95-2.137-2.123-2.137C65.598 39.813 64.647 40.769 64.647 41.949z" fill="#ffffff" data-fill-palette-color="accent"></path><path d="M82.177 62.811c-13.354-4.355-24.887-8.117-39.019-9.117-3.692-0.258-7.803-6.38-7.803-10.333v-1.411c0-1.18-0.952-2.137-2.125-2.137-1.173 0-2.125 0.957-2.125 2.137v1.411c0 6.071 5.536 14.158 11.756 14.599 13.616 0.965 24.917 4.648 38.005 8.916 4.378 1.433 4.887 3.175 4.887 4.364v15.229c0 2.351-1.899 4.262-4.23 4.262H18.48c-2.332 0-4.23-1.911-4.23-4.262V71.239c0-0.759 0-2.772 4.883-4.361l3.921-1.28c1.116-0.361 1.729-1.566 1.369-2.691-0.359-1.12-1.555-1.738-2.677-1.373l-3.922 1.273C12.633 64.499 10 67.337 10 71.239v15.229C10 91.173 13.804 95 18.48 95h63.042C86.196 95 90 91.173 90 86.468V71.239C90 67.343 87.37 64.508 82.177 62.811z" fill="#ffffff" data-fill-palette-color="accent"></path><path d="M33.073 21.458c0.093 0.013 0.188 0.019 0.281 0.019 1.049 0 1.962-0.782 2.104-1.857 0.906-6.887 8.338-10.388 15.356-10.345 5.824 0.061 12.917 2.796 13.748 10.301 0.13 1.172 1.183 2.023 2.347 1.889 1.164-0.129 2.006-1.186 1.874-2.36C67.725 9.481 59.016 5.087 50.859 5.001 50.773 5 50.689 5 50.606 5 41.86 5 32.461 9.797 31.245 19.061 31.091 20.23 31.909 21.304 33.073 21.458z" fill="#ffffff" data-fill-palette-color="accent"></path><path d="M29.914 63.348c0.207 0 0.417-0.031 0.625-0.098 0.812-0.25 1.494-0.446 2.594-0.758 1.13-0.322 1.787-1.502 1.468-2.639-0.321-1.137-1.505-1.792-2.623-1.477-1.141 0.324-1.85 0.527-2.69 0.789-1.123 0.348-1.751 1.543-1.405 2.673C28.165 62.757 29.006 63.348 29.914 63.348z" fill="#ffffff" data-fill-palette-color="accent"></path></g></svg></g></svg></g><g><rect width="150.2992846627768" height="5.7936816738641665" y="81.99292783488795" x="245.22071533722314" fill="#ffffff" data-fill-palette-color="accent"></rect><rect width="150.2992846627768" height="5.7936816738641665" y="81.99292783488795" x="0" fill="#ffffff" data-fill-palette-color="accent"></rect><rect width="150.2992846627768" height="5.7936816738641665" y="70.40556448715962" x="245.22071533722314" fill="#ffffff" data-fill-palette-color="accent"></rect><rect width="150.2992846627768" height="5.7936816738641665" y="70.40556448715962" x="0" fill="#ffffff" data-fill-palette-color="accent"></rect></g></svg></g><defs></defs></svg><rect width="395.52" height="168.19832957759456" fill="none" stroke="none" visibility="hidden"></rect></g></svg></g></svg>